mtllib boxed_floor.mtl
o Cbox
v 0.500000 -0.000000 -0.500000
v 0.500000 -1.000000 0.500000
v 0.500000 -1.000000 -0.500000
v 0.500000 0.000000 0.500000
v -0.500000 -1.000000 0.500000
v -0.500000 0.000000 0.500000
v -0.500000 -1.000000 -0.500000
v -0.500000 -0.000000 -0.500000
vt 1.000000 1.000000
vt 0.000000 0.000000
vt 1.000000 0.000000
vt 1.000000 1.000000
vt 0.000000 0.000000
vt 1.000000 0.000000
vt 1.000000 1.000000
vt 0.000000 0.000000
vt 1.000000 0.000000
vt 1.000000 0.000000
vt -0.000000 1.000000
vt 0.000000 -0.000000
vt 0.000000 1.000000
vt 0.000000 1.000000
vn 1.0000 0.0000 0.0000
vn 0.0000 0.0000 1.0000
vn -1.0000 0.0000 0.0000
vn 0.0000 1.0000 -0.0000
usemtl ../../res/materials/boxed_floor.mtl/boxed_floor_material
s 1
f 1/1/1 2/2/1 3/3/1
f 4/4/2 5/5/2 2/6/2
f 6/7/3 7/8/3 5/9/3
f 4/10/4 8/11/4 6/12/4
f 1/1/1 4/13/1 2/2/1
f 4/4/2 6/14/2 5/5/2
f 6/7/3 8/11/3 7/8/3
f 4/10/4 1/1/4 8/11/4
