mtllib character_B.mtl
o character_plane_B
v -0.500000 0.000000 0.312500
v 0.500000 0.000000 0.312500
v -0.500000 0.000000 -0.500000
v 0.500000 0.000000 -0.500000
v -0.156250 0.000000 0.343750
v 0.187500 0.000000 0.343750
v -0.156250 0.000000 0.312500
v 0.187500 0.000000 0.312500
v -0.125000 0.000000 0.375000
v 0.156250 0.000000 0.375000
v -0.125000 0.000000 0.343750
v 0.156250 0.000000 0.343750
v -0.062500 0.000000 0.406250
v 0.093750 0.000000 0.406250
v -0.062500 0.000000 0.375000
v 0.093750 0.000000 0.375000
vt 0.406210 0.906210
vt 0.562460 0.874977
vt 0.562460 0.906210
vt 0.343811 0.874957
vt 0.625061 0.843810
vt 0.625061 0.874957
vt 0.312486 0.843810
vt 0.656236 0.812615
vt 0.656236 0.843810
vt 1.000000 0.812643
vt 0.000019 0.000000
vt 1.000019 0.000000
vt 0.406210 0.874977
vt 0.343811 0.843810
vt 0.312486 0.812615
vt 0.000000 0.812643
vn 0.0000 1.0000 0.0000
usemtl ../../res/materials/character.mtl/character_material
s off
f 14/1/1 15/2/1 13/3/1
f 10/4/1 11/5/1 9/6/1
f 6/7/1 7/8/1 5/9/1
f 1/10/1 4/11/1 3/12/1
f 14/1/1 16/13/1 15/2/1
f 10/4/1 12/14/1 11/5/1
f 6/7/1 8/15/1 7/8/1
f 1/10/1 2/16/1 4/11/1
