mtllib character_A.mtl
o character_plane_Plane
v -0.500000 0.000000 -0.500000
v 0.500000 0.000000 -0.500000
v -0.500000 0.000000 0.250000
v 0.500000 0.000000 0.250000
v -0.187500 0.000000 0.250000
v -0.187500 0.000000 0.281250
v -0.156250 0.000000 0.281250
v -0.156250 0.000000 0.312500
v -0.125000 0.000000 0.312500
v -0.125000 0.000000 0.343750
v -0.062500 0.000000 0.343750
v -0.062500 0.000000 0.375000
v 0.218750 0.000000 0.250000
v 0.187500 0.000000 0.281250
v 0.218750 0.000000 0.281250
v 0.156250 0.000000 0.312500
v 0.187500 0.000000 0.312500
v 0.093750 0.000000 0.343750
v 0.156250 0.000000 0.343750
v 0.093750 0.000000 0.375000
vt 0.657849 0.780467
vt 0.563981 0.843025
vt 0.407325 0.843226
vt 0.344629 0.812073
vt 0.313301 0.812112
vt 0.313271 0.780876
vt 0.281946 0.780914
vt 0.281919 0.749677
vt 0.000018 0.749999
vt 0.000019 0.000000
vt 1.000019 0.000000
vt 0.689108 0.749212
vt 0.689174 0.780429
vt 1.002330 0.748855
vt 0.344662 0.843307
vt 0.657912 0.811685
vt 0.626584 0.811724
vt 0.626644 0.842944
vt 0.564035 0.874248
vt 0.407364 0.874457
vn 0.0000 1.0000 0.0000
usemtl ../../res/materials/character.mtl/character_material
s off
f 7/1/1 11/2/1 18/3/1
f 16/4/1 17/5/1 14/6/1
f 14/6/1 15/7/1 13/8/1
f 13/8/1 4/9/1 2/10/1
f 2/10/1 1/11/1 5/12/1
f 5/12/1 6/13/1 7/1/1
f 1/11/1 3/14/1 5/12/1
f 14/6/1 13/8/1 7/1/1
f 18/3/1 19/15/1 16/4/1
f 16/4/1 14/6/1 18/3/1
f 2/10/1 5/12/1 13/8/1
f 7/1/1 8/16/1 9/17/1
f 9/17/1 10/18/1 11/2/1
f 11/2/1 12/19/1 18/3/1
f 18/3/1 14/6/1 7/1/1
f 12/19/1 20/20/1 18/3/1
f 7/1/1 9/17/1 11/2/1
f 13/8/1 5/12/1 7/1/1
