mtllib character_D.mtl
o character_plane_Plane
v -0.500000 0.000000 -0.500000
v 0.500000 0.000000 -0.500000
v -0.500000 0.000000 0.250000
v 0.500000 0.000000 0.250000
v -0.218750 0.000000 0.250000
v -0.218750 0.000000 0.312500
v -0.187500 0.000000 0.312500
v -0.187500 0.000000 0.343750
v -0.156250 0.000000 0.343750
v -0.156250 0.000000 0.375000
v -0.125000 0.000000 0.375000
v -0.125000 0.000000 0.406250
v -0.062500 0.000000 0.406250
v -0.062500 0.000000 0.437500
v 0.218750 0.000000 0.250000
v 0.187500 0.000000 0.312500
v 0.218750 0.000000 0.312500
v 0.156250 0.000000 0.343750
v 0.187500 0.000000 0.343750
v 0.125000 0.000000 0.375000
v 0.156250 0.000000 0.375000
v 0.062500 0.000000 0.406250
v 0.125000 0.000000 0.406250
v 0.062500 0.000000 0.437500
vt 0.656250 0.843750
vt 0.343750 0.843750
vt 0.281250 0.750000
vt 0.000000 0.000000
vt 1.000000 0.000000
vt 0.718750 0.750000
vt 0.718750 0.812500
vt 0.687500 0.812500
vt 1.000000 0.750000
vt 0.000000 0.750000
vt 0.312500 0.812500
vt 0.281250 0.812500
vt 0.312500 0.843750
vt 0.375000 0.875000
vt 0.343750 0.875000
vt 0.437500 0.906250
vt 0.375000 0.906250
vt 0.562500 0.937500
vt 0.437500 0.937500
vt 0.625000 0.875000
vt 0.625000 0.906250
vt 0.562500 0.906250
vt 0.687500 0.843750
vt 0.656250 0.875000
vn 0.0000 1.0000 0.0000
usemtl ../../res/materials/character.mtl/character_material
s off
f 9/1/1 18/2/1 15/3/1
f 2/4/1 1/5/1 5/6/1
f 5/6/1 6/7/1 7/8/1
f 1/5/1 3/9/1 5/6/1
f 15/3/1 4/10/1 2/4/1
f 16/11/1 17/12/1 15/3/1
f 18/2/1 19/13/1 16/11/1
f 20/14/1 21/15/1 18/2/1
f 22/16/1 23/17/1 20/14/1
f 14/18/1 24/19/1 22/16/1
f 11/20/1 12/21/1 13/22/1
f 13/22/1 14/18/1 22/16/1
f 22/16/1 20/14/1 18/2/1
f 18/2/1 16/11/1 15/3/1
f 15/3/1 2/4/1 5/6/1
f 7/8/1 8/23/1 9/1/1
f 15/3/1 5/6/1 9/1/1
f 22/16/1 9/1/1 13/22/1
f 11/20/1 13/22/1 9/1/1
f 9/1/1 10/24/1 11/20/1
f 5/6/1 7/8/1 9/1/1
f 22/16/1 18/2/1 9/1/1
