mtllib character_A.mtl
o character_plane_A
v -0.500000 0.000000 0.281250
v 0.500000 0.000000 0.281250
v -0.500000 0.000000 -0.500000
v 0.500000 0.000000 -0.500000
v -0.156250 0.000000 0.312500
v 0.187500 0.000000 0.312500
v -0.156250 0.000000 0.281250
v 0.187500 0.000000 0.281250
v -0.125000 0.000000 0.343750
v 0.156250 0.000000 0.343750
v -0.125000 0.000000 0.312500
v 0.156250 0.000000 0.312500
v -0.062500 0.000000 0.375000
v 0.093750 0.000000 0.375000
v -0.062500 0.000000 0.343750
v 0.093750 0.000000 0.343750
vt 0.406210 0.875012
vt 0.562460 0.843779
vt 0.562460 0.875012
vt 0.343811 0.843759
vt 0.625061 0.812613
vt 0.625061 0.843759
vt 0.312486 0.812612
vt 0.656236 0.781417
vt 0.656236 0.812612
vt 1.000019 0.000000
vt 0.000000 0.781445
vt 0.000019 0.000000
vt 0.406210 0.843779
vt 0.343811 0.812613
vt 0.312486 0.781417
vt 1.000000 0.781445
vn 0.0000 1.0000 0.0000
usemtl ../../res/materials/character.mtl/character_material
s off
f 14/1/1 15/2/1 13/3/1
f 10/4/1 11/5/1 9/6/1
f 6/7/1 7/8/1 5/9/1
f 3/10/1 2/11/1 4/12/1
f 14/1/1 16/13/1 15/2/1
f 10/4/1 12/14/1 11/5/1
f 6/7/1 8/15/1 7/8/1
f 3/10/1 1/16/1 2/11/1
