# Blender v2.68 (sub 0) OBJ File: 'lamp_post_1.blend'
# www.blender.org
mtllib lamp_post_1.mtl
o Cylinder
v 0.930002 -0.153470 -0.967363
v 0.212907 10.594097 -0.243983
v 1.333159 -0.153470 -0.005943
v 0.314588 10.594097 -0.001499
v 0.938408 -0.153470 0.958958
v 0.215027 10.594097 0.241862
v -0.023013 -0.153470 1.362115
v -0.027457 10.594097 0.343544
v -0.987915 -0.153470 0.967363
v -0.270818 10.594097 0.243982
v -1.391071 -0.153470 0.005942
v -0.372500 10.594097 0.001498
v -0.996318 -0.153470 -0.958959
v -0.272938 10.594097 -0.241863
v -0.034897 -0.153470 -1.362115
v -0.030454 10.594097 -0.343544
v 0.402155 1.008897 -0.434889
v 0.583398 1.008897 -0.002672
v 0.405933 1.008897 0.431110
v -0.026284 1.008897 0.612354
v -0.460066 1.008897 0.434889
v -0.641310 1.008897 0.002671
v -0.463844 1.008897 -0.431111
v -0.031627 1.008897 -0.612354
v 0.299282 2.282593 -0.331115
v 0.437276 2.282593 -0.002035
v 0.302159 2.282593 0.328237
v -0.026922 2.282593 0.466232
v -0.357193 2.282593 0.331114
v -0.495188 2.282593 0.002034
v -0.360070 2.282593 -0.328238
v -0.030989 2.282593 -0.466232
v 0.344612 2.196350 -0.376842
v 0.501664 2.196350 -0.002315
v 0.347886 2.196350 0.373568
v -0.026641 2.196350 0.530619
v -0.402524 2.196350 0.376842
v -0.559575 2.196350 0.002315
v -0.405797 2.196350 -0.373568
v -0.031270 2.196350 -0.530620
v 0.361127 2.070942 -0.393502
v 0.525122 2.070942 -0.002418
v 0.364546 2.070942 0.390082
v -0.026538 2.070942 0.554077
v -0.419038 2.070942 0.393501
v -0.583033 2.070942 0.002417
v -0.422457 2.070942 -0.390083
v -0.031373 2.070942 -0.554078
v 0.236304 2.360851 -0.267585
v 0.347822 2.360851 -0.001644
v 0.238629 2.360851 0.265259
v -0.027312 2.360851 0.376777
v -0.294215 2.360851 0.267584
v -0.405733 2.360851 0.001643
v -0.296540 2.360851 -0.265260
v -0.030599 2.360851 -0.376778
v 0.572862 11.072123 -0.596345
v -0.617462 11.072123 -0.593979
v -0.615096 11.072123 0.596345
v 0.575227 11.072123 0.593979
v 0.948622 13.225184 -0.948622
v -0.948622 13.225184 -0.948622
v -0.948622 13.225184 0.948622
v 0.948622 13.225184 0.948622
v 0.444278 11.072123 0.595162
v -0.479779 11.072123 0.595753
v -0.616279 11.072123 0.464083
v -0.616870 11.072123 -0.455879
v -0.468659 11.072123 -0.595162
v 0.419361 11.072123 -0.595754
v 0.574045 11.072123 -0.452813
v 0.574636 11.072123 0.432086
v 0.948622 13.225184 -0.807184
v 0.948622 13.225184 0.833249
v 0.818684 13.225184 0.948622
v -0.829506 13.225184 0.948622
v -0.948622 13.225184 0.843992
v -0.948622 13.225184 -0.805277
v -0.823307 13.225184 -0.948622
v 0.829604 13.225184 -0.948622
v 0.000000 14.016938 0.000000
vt 0.138918 0.134214
vt 0.107999 0.020425
vt 0.113280 0.139674
vt 0.858558 0.340217
vt 0.796462 0.314591
vt 0.858612 0.382209
vt 0.323825 0.867280
vt 0.274547 0.980108
vt 0.357452 0.869260
vt 0.398860 0.864932
vt 0.441456 0.974885
vt 0.559098 0.137883
vt 0.608374 0.025010
vt 0.525466 0.135822
vt 0.533561 0.020425
vt 0.484059 0.140167
vt 0.213792 0.139690
vt 0.274547 0.032606
vt 0.180552 0.134221
vt 0.200608 0.020440
vt 0.787546 0.082956
vt 0.770867 0.066319
vt 0.811104 0.082925
vt 0.139221 0.228630
vt 0.116022 0.233571
vt 0.835422 0.583954
vt 0.835225 0.526990
vt 0.800349 0.572781
vt 0.320834 0.773185
vt 0.351261 0.774976
vt 0.388729 0.771060
vt 0.562085 0.231930
vt 0.531653 0.230064
vt 0.494186 0.233996
vt 0.206969 0.233585
vt 0.176892 0.228636
vt 0.827449 0.596940
vt 0.824373 0.589540
vt 0.809204 0.615233
vt 0.801795 0.612176
vt 0.809237 0.641070
vt 0.801836 0.644147
vt 0.827530 0.659316
vt 0.378550 0.743739
vt 0.353072 0.746402
vt 0.383208 0.751551
vt 0.803871 0.701753
vt 0.796462 0.698696
vt 0.803904 0.727590
vt 0.529844 0.258672
vt 0.531234 0.250207
vt 0.504366 0.261346
vt 0.796496 0.695638
vt 0.803904 0.698696
vt 0.796462 0.669801
vt 0.172117 0.256867
vt 0.174379 0.248613
vt 0.146500 0.256863
vt 0.142680 0.248608
vt 0.139996 0.240032
vt 0.123160 0.252765
vt 0.796462 0.609975
vt 0.326078 0.753339
vt 0.321751 0.761836
vt 0.351681 0.754847
vt 0.386771 0.759802
vt 0.556841 0.251777
vt 0.561168 0.243275
vt 0.532024 0.241489
vt 0.499707 0.253516
vt 0.199687 0.252777
vt 0.204876 0.244777
vt 0.176072 0.240038
vt 0.117779 0.244763
vt 0.835449 0.589540
vt 0.801860 0.578840
vt 0.350890 0.763552
vt 0.496144 0.245254
vt 0.130183 0.982424
vt 0.115799 0.985487
vt 0.795032 0.792717
vt 0.796462 0.322335
vt 0.773329 0.785656
vt 0.277136 0.021742
vt 0.332381 0.745184
vt 0.296002 0.022853
vt 0.319233 0.020425
vt 0.605748 0.982945
vt 0.550538 0.259941
vt 0.586880 0.981789
vt 0.563649 0.984227
vt 0.172188 0.985497
vt 0.192569 0.260232
vt 0.153540 0.982428
vt 0.733392 0.753483
vt 0.762342 0.558088
vt 0.772656 0.558090
vt 0.704405 0.558024
vt 0.662287 0.558050
vt 0.638344 0.510030
vt 0.796519 0.483000
vt 0.796462 0.439471
vt 0.827405 0.407996
vt 0.709414 0.801486
vt 0.667297 0.801512
vt 0.745122 0.753476
vt 0.619625 0.558053
vt 0.653364 0.753474
vt 0.608374 0.558050
vt 0.622446 0.077748
vt 0.618253 0.276324
vt 0.608374 0.277810
vt 0.758725 0.255208
vt 0.698232 0.066345
vt 0.770836 0.253387
vt 0.941191 0.305132
vt 0.941218 0.314069
vt 0.856167 0.294534
vt 0.637504 0.026722
vt 0.679149 0.020425
vt 0.710546 0.064473
vt 0.931444 0.183598
vt 0.897097 0.082956
vt 0.940818 0.183569
vt 0.814674 0.083168
vt 0.783679 0.184051
vt 0.770836 0.184091
vt 0.619225 0.314593
vt 0.651255 0.510013
vt 0.608374 0.314591
vt 0.728164 0.510021
vt 0.762353 0.314626
vt 0.772659 0.314628
vt 0.770862 0.192710
vt 0.722158 0.314591
vt 0.050969 0.032570
vt 0.796583 0.407996
vt 0.349348 0.984511
vt 0.441456 0.030091
vt 0.827710 0.042687
vt 0.827741 0.066245
vt 0.770836 0.042761
vt 0.787472 0.026082
vt 0.811030 0.026051
vt 0.796462 0.514643
vt 0.824473 0.666725
vt 0.796504 0.730667
vt 0.803863 0.666725
vt 0.796509 0.646362
vt 0.130725 0.260222
vt 0.772659 0.314591
vt 0.741469 0.510014
vt 0.827289 0.514643
vt 0.827274 0.502269
vt 0.827474 0.419846
vt 0.641998 0.753491
vt 0.608571 0.079844
vt 0.940843 0.191762
vt 0.908947 0.083001
vt 0.802301 0.083165
vt 0.771211 0.306404
vt 0.771236 0.314591
vn 0.795067 0.511926 0.325270
vn 0.792198 0.511926 -0.332196
vn 0.325271 0.511926 -0.795067
vn -0.332195 0.511926 -0.792199
vn -0.795066 0.511926 -0.325271
vn -0.792198 0.511926 0.332195
vn -0.325271 0.511926 0.795067
vn 0.332196 0.511926 0.792198
vn -0.000000 -1.000000 0.000000
vn 0.924353 0.050631 0.378163
vn 0.921018 0.050631 -0.386215
vn 0.378164 0.050631 -0.924353
vn -0.386214 0.050631 -0.921019
vn -0.924353 0.050631 -0.378164
vn -0.921019 0.050631 0.386214
vn -0.378163 0.050631 0.924353
vn 0.386215 0.050631 0.921018
vn 0.636371 0.726121 0.260346
vn 0.634075 0.726121 -0.265890
vn 0.260347 0.726121 -0.636371
vn -0.265889 0.726121 -0.634076
vn -0.636371 0.726121 -0.260347
vn -0.634075 0.726121 0.265889
vn -0.260346 0.726121 0.636371
vn 0.265890 0.726121 0.634075
vn 0.761880 0.567791 0.311693
vn 0.759131 0.567791 -0.318330
vn 0.311694 0.567791 -0.761880
vn -0.318329 0.567791 -0.759131
vn -0.761879 0.567791 -0.311694
vn -0.759131 0.567791 0.318329
vn -0.311693 0.567791 0.761880
vn 0.318330 0.567791 0.759131
vn 0.912022 0.170291 0.373118
vn 0.908731 0.170291 -0.381062
vn 0.373119 0.170291 -0.912022
vn -0.381061 0.170291 -0.908732
vn -0.912021 0.170291 -0.373119
vn -0.908731 0.170291 0.381062
vn -0.373118 0.170291 0.912022
vn 0.381062 0.170292 0.908731
vn 0.925534 0.003729 0.378646
vn 0.922195 0.003729 -0.386708
vn 0.378647 0.003729 -0.925534
vn -0.386707 0.003729 -0.922195
vn -0.925534 0.003729 -0.378647
vn -0.922195 0.003729 0.386708
vn -0.378647 0.003729 0.925534
vn 0.386708 0.003729 0.922195
vn 0.000000 -0.161734 0.986834
vn -0.003507 -0.594710 -0.803933
vn -0.810212 -0.586127 0.003534
vn 0.003517 -0.591698 0.806152
vn 0.000000 -0.161998 0.986791
vn 0.985247 -0.171137 0.000000
vn 0.985202 -0.171400 0.000000
vn 0.000000 0.767729 0.640774
vn 0.797608 -0.603167 -0.003480
vn -0.988296 -0.152551 0.000000
vn -0.988336 -0.152286 0.000000
vn 0.000000 -0.161997 -0.986791
vn -0.000000 -0.161734 -0.986834
vn -0.640774 0.767729 0.000000
vn 0.000000 0.767729 -0.640774
vn 0.640774 0.767729 -0.000000
vn 0.325271 0.511926 -0.795066
vn -0.332195 0.511926 -0.792198
vn -0.792198 0.511926 0.332196
vn -0.325271 0.511926 0.795066
vn 0.924354 0.050631 0.378163
vn 0.378163 0.050631 -0.924353
vn -0.386213 0.050631 -0.921019
vn 0.634075 0.726121 -0.265889
vn 0.265889 0.726121 0.634075
vn 0.761879 0.567791 0.311693
vn 0.311694 0.567791 -0.761879
vn -0.373118 0.170292 0.912022
vn 0.381063 0.170291 0.908731
vn -0.378646 0.003729 0.925534
vn 0.004314 -0.160817 0.986975
vn -0.003105 -0.591825 -0.806060
vn -0.006371 -0.597923 -0.801528
vn -0.000536 -0.592548 -0.805535
vn -0.812465 -0.583000 0.003479
vn -0.807106 -0.590362 0.007217
vn -0.811843 -0.583876 0.000522
vn 0.007249 -0.596596 0.802509
vn 0.003524 -0.591691 0.806157
vn 0.000515 -0.594525 0.804077
vn 0.008910 -0.164023 0.986416
vn 0.985386 -0.170297 -0.003600
vn 0.984852 -0.173208 -0.008117
vn 0.799679 -0.600421 -0.002922
vn 0.794987 -0.606591 -0.006552
vn 0.799226 -0.601030 -0.000534
vn -0.987955 -0.154487 0.008834
vn -0.988473 -0.151339 0.004233
vn -0.007841 -0.163694 -0.986480
vn -0.003802 -0.160822 -0.986976
usemtl lamp_post_1
s off
f 19/1/1 5/2/1 18/3/1
f 18/4/2 3/5/2 17/6/2
f 17/7/3 1/8/3 24/9/3
f 23/10/4 24/9/4 13/11/4
f 23/12/5 13/13/5 22/14/5
f 22/14/6 11/15/6 21/16/6
f 21/17/7 9/18/7 20/19/7
f 20/19/8 7/20/8 19/1/8
f 12/21/9 14/22/9 10/23/9
f 43/24/10 19/1/10 42/25/10
f 42/26/11 18/27/11 41/28/11
f 41/29/12 17/7/12 48/30/12
f 47/31/13 48/30/13 23/10/13
f 47/32/14 23/12/14 46/33/14
f 46/33/15 22/14/15 45/34/15
f 45/35/16 21/17/16 44/36/16
f 44/36/17 20/19/17 43/24/17
f 51/37/18 27/38/18 50/39/18
f 50/39/19 26/40/19 49/41/19
f 49/41/20 25/42/20 56/43/20
f 55/44/21 56/45/21 31/46/21
f 55/47/22 31/48/22 54/49/22
f 54/50/23 30/51/23 53/52/23
f 53/53/24 29/54/24 52/55/24
f 52/56/25 28/57/25 51/58/25
f 27/59/26 35/60/26 26/61/26
f 26/40/27 34/62/27 25/42/27
f 25/63/28 33/64/28 32/65/28
f 31/46/29 32/65/29 39/66/29
f 31/67/30 39/68/30 30/51/30
f 30/51/31 38/69/31 29/70/31
f 29/71/32 37/72/32 28/57/32
f 28/57/33 36/73/33 27/59/33
f 35/60/34 43/24/34 34/74/34
f 34/75/35 42/26/35 33/76/35
f 33/64/36 41/29/36 40/77/36
f 39/66/37 40/77/37 47/31/37
f 39/68/38 47/32/38 38/69/38
f 38/69/39 46/33/39 37/78/39
f 37/72/40 45/35/40 36/73/40
f 36/73/41 44/36/41 35/60/41
f 6/79/42 51/58/42 4/80/42
f 4/81/43 50/82/43 2/83/43
f 2/84/44 49/85/44 16/86/44
f 14/87/45 16/86/45 55/44/45
f 14/88/46 55/89/46 12/90/46
f 12/90/47 54/50/47 10/91/47
f 10/92/48 53/93/48 8/94/48
f 8/94/49 52/56/49 6/79/49
f 66/95/50 76/96/50 63/97/50
f 2/98/51 14/99/51 58/100/51
f 14/101/52 10/102/52 59/103/52
f 10/104/53 6/105/53 59/106/53
f 75/107/54 65/108/54 64/109/54
f 72/110/55 74/111/55 64/112/55
f 73/113/56 71/114/56 61/115/56
f 75/116/57 64/117/57 81/118/57
f 6/119/58 2/120/58 57/121/58
f 77/122/59 67/123/59 63/124/59
f 68/125/60 78/126/60 62/127/60
f 79/128/61 69/129/61 62/130/61
f 70/131/62 80/132/62 61/133/62
f 62/127/63 78/126/63 81/118/63
f 79/134/64 62/127/64 81/118/64
f 73/113/65 61/115/65 81/135/65
f 5/2/1 3/136/1 18/3/1
f 3/5/2 1/137/2 17/6/2
f 1/8/66 15/138/66 24/9/66
f 24/9/67 15/138/67 13/11/67
f 13/13/5 11/15/5 22/14/5
f 11/15/68 9/139/68 21/16/68
f 9/18/69 7/20/69 20/19/69
f 7/20/8 5/2/8 19/1/8
f 10/23/9 6/140/9 8/141/9
f 10/23/9 14/22/9 6/140/9
f 14/22/9 16/142/9 6/140/9
f 16/142/9 2/143/9 6/140/9
f 2/143/9 4/144/9 6/140/9
f 19/1/70 18/3/70 42/25/70
f 18/27/11 17/145/11 41/28/11
f 17/7/71 24/9/71 48/30/71
f 48/30/72 24/9/72 23/10/72
f 23/12/14 22/14/14 46/33/14
f 22/14/15 21/16/15 45/34/15
f 21/17/16 20/19/16 44/36/16
f 20/19/17 19/1/17 43/24/17
f 27/38/18 26/40/18 50/39/18
f 26/40/73 25/42/73 49/41/73
f 25/42/20 32/146/20 56/43/20
f 56/45/21 32/65/21 31/46/21
f 31/48/22 30/147/22 54/49/22
f 30/51/23 29/70/23 53/52/23
f 29/54/24 28/148/24 52/55/24
f 28/57/74 27/59/74 51/58/74
f 35/60/75 34/74/75 26/61/75
f 34/62/27 33/149/27 25/42/27
f 33/64/76 40/77/76 32/65/76
f 32/65/29 40/77/29 39/66/29
f 39/68/30 38/69/30 30/51/30
f 38/69/31 37/78/31 29/70/31
f 37/72/32 36/73/32 28/57/32
f 36/73/33 35/60/33 27/59/33
f 43/24/34 42/25/34 34/74/34
f 42/26/35 41/28/35 33/76/35
f 41/29/36 48/30/36 40/77/36
f 40/77/37 48/30/37 47/31/37
f 47/32/38 46/33/38 38/69/38
f 46/33/39 45/34/39 37/78/39
f 45/35/77 44/36/77 36/73/77
f 44/36/78 43/24/78 35/60/78
f 51/58/42 50/150/42 4/80/42
f 50/82/43 49/151/43 2/83/43
f 49/85/44 56/45/44 16/86/44
f 16/86/45 56/45/45 55/44/45
f 55/89/46 54/50/46 12/90/46
f 54/50/47 53/52/47 10/91/47
f 53/93/79 52/56/79 8/94/79
f 52/56/49 51/58/49 6/79/49
f 59/106/80 66/95/80 63/97/80
f 57/152/81 2/98/81 70/131/81
f 2/98/82 58/100/82 69/129/82
f 70/131/83 2/98/83 69/129/83
f 58/153/84 14/101/84 68/154/84
f 14/101/85 59/103/85 67/155/85
f 68/154/86 14/101/86 67/155/86
f 6/105/87 60/156/87 65/108/87
f 59/106/88 6/105/88 66/95/88
f 6/105/89 65/108/89 66/95/89
f 65/108/90 60/156/90 64/109/90
f 60/157/91 72/110/91 64/112/91
f 71/114/92 57/121/92 61/115/92
f 76/158/57 75/116/57 81/118/57
f 63/124/57 76/158/57 81/118/57
f 60/157/93 6/119/93 72/110/93
f 6/119/94 57/121/94 71/114/94
f 72/110/95 6/119/95 71/114/95
f 67/123/96 59/159/96 63/124/96
f 58/160/97 68/125/97 62/127/97
f 69/129/98 58/100/98 62/130/98
f 57/152/99 70/131/99 61/133/99
f 78/126/63 77/122/63 81/118/63
f 77/122/63 63/124/63 81/118/63
f 80/161/64 79/134/64 81/118/64
f 61/162/64 80/161/64 81/118/64
f 74/111/65 73/113/65 81/135/65
f 64/112/65 74/111/65 81/135/65
