# Blender v2.68 (sub 0) OBJ File: 'lamp_post_1.blend'
# www.blender.org
mtllib lamp_post_1.mtl
o Cylinder
v 0.533364 0.424097 -0.556872
v 0.120518 6.611677 -0.140408
v 0.765469 0.424097 -0.003365
v 0.179058 6.611677 -0.000806
v 0.538203 0.424097 0.552148
v 0.121739 6.611677 0.139302
v -0.015305 0.424097 0.784253
v -0.017864 6.611677 0.197842
v -0.570818 0.424097 0.556986
v -0.157972 6.611677 0.140522
v -0.802922 0.424097 0.003478
v -0.216512 6.611677 0.000920
v -0.575656 0.424097 -0.552034
v -0.159192 6.611677 -0.139188
v -0.022147 0.424097 -0.784139
v -0.019589 6.611677 -0.197728
v 0.229472 1.093294 -0.250317
v 0.333817 1.093294 -0.001481
v 0.231647 1.093294 0.248256
v -0.017188 1.093294 0.352601
v -0.266925 1.093294 0.250431
v -0.371271 1.093294 0.001595
v -0.269100 1.093294 -0.248142
v -0.020264 1.093294 -0.352487
v 0.170246 1.826585 -0.190572
v 0.249692 1.826585 -0.001114
v 0.171902 1.826585 0.189030
v -0.017556 1.826585 0.268476
v -0.207699 1.826585 0.190686
v -0.287145 1.826585 0.001228
v -0.209355 1.826585 -0.188916
v -0.019897 1.826585 -0.268362
v 0.196343 1.776933 -0.216898
v 0.286761 1.776933 -0.001276
v 0.198228 1.776933 0.215127
v -0.017394 1.776933 0.305545
v -0.233797 1.776933 0.217012
v -0.324215 1.776933 0.001390
v -0.235681 1.776933 -0.215013
v -0.020059 1.776933 -0.305431
v 0.205851 1.704733 -0.226489
v 0.300266 1.704733 -0.001335
v 0.207820 1.704733 0.224635
v -0.017335 1.704733 0.319050
v -0.243305 1.704733 0.226603
v -0.337720 1.704733 0.001449
v -0.245273 1.704733 -0.224521
v -0.020118 1.704733 -0.318936
v 0.133988 1.871639 -0.153996
v 0.198191 1.871639 -0.000889
v 0.135327 1.871639 0.152772
v -0.017780 1.871639 0.216975
v -0.171442 1.871639 0.154110
v -0.235645 1.871639 0.001003
v -0.172780 1.871639 -0.152658
v -0.019673 1.871639 -0.216861
v 0.327751 6.886886 -0.343270
v -0.357541 6.886886 -0.341908
v -0.356179 6.886886 0.343384
v 0.329113 6.886886 0.342022
v 0.544083 8.126444 -0.546082
v -0.548196 8.126444 -0.546082
v -0.548196 8.126444 0.546197
v 0.544083 8.126444 0.546197
v 0.253723 6.886886 0.342703
v -0.278274 6.886886 0.343044
v -0.356860 6.886886 0.267238
v -0.357200 6.886886 -0.262401
v -0.271872 6.886886 -0.342589
v 0.239378 6.886886 -0.342930
v 0.328432 6.886886 -0.260636
v 0.328773 6.886886 0.248817
v 0.544083 8.126444 -0.464654
v 0.544083 8.126444 0.479774
v 0.469276 8.126444 0.546197
v -0.479619 8.126444 0.546197
v -0.548196 8.126444 0.485960
v -0.548196 8.126444 -0.463556
v -0.476050 8.126444 -0.546082
v 0.475563 8.126444 -0.546082
v -0.002056 8.582273 0.000057
vt 0.138918 0.134214
vt 0.107999 0.020425
vt 0.113280 0.139674
vt 0.858558 0.340217
vt 0.796462 0.314591
vt 0.858612 0.382209
vt 0.323825 0.867280
vt 0.274547 0.980108
vt 0.357452 0.869260
vt 0.398860 0.864932
vt 0.441456 0.974885
vt 0.559098 0.137883
vt 0.608374 0.025010
vt 0.525466 0.135822
vt 0.533561 0.020425
vt 0.484059 0.140167
vt 0.213792 0.139690
vt 0.274547 0.032606
vt 0.180552 0.134221
vt 0.200608 0.020440
vt 0.787546 0.082956
vt 0.770867 0.066319
vt 0.811104 0.082925
vt 0.139221 0.228630
vt 0.116022 0.233571
vt 0.835422 0.583954
vt 0.835225 0.526990
vt 0.800349 0.572781
vt 0.320834 0.773185
vt 0.351261 0.774976
vt 0.388729 0.771060
vt 0.562085 0.231930
vt 0.531653 0.230064
vt 0.494186 0.233996
vt 0.206969 0.233585
vt 0.176892 0.228636
vt 0.827449 0.596940
vt 0.824373 0.589540
vt 0.809204 0.615233
vt 0.801795 0.612176
vt 0.809237 0.641070
vt 0.801836 0.644147
vt 0.827530 0.659316
vt 0.378550 0.743739
vt 0.353072 0.746402
vt 0.383208 0.751551
vt 0.803871 0.701753
vt 0.796462 0.698696
vt 0.803904 0.727590
vt 0.529844 0.258672
vt 0.531234 0.250207
vt 0.504366 0.261346
vt 0.796496 0.695638
vt 0.803904 0.698696
vt 0.796462 0.669801
vt 0.172117 0.256867
vt 0.174379 0.248613
vt 0.146500 0.256863
vt 0.142680 0.248608
vt 0.139996 0.240032
vt 0.123160 0.252765
vt 0.796462 0.609975
vt 0.326078 0.753339
vt 0.321751 0.761836
vt 0.351681 0.754847
vt 0.386771 0.759802
vt 0.556841 0.251777
vt 0.561168 0.243275
vt 0.532024 0.241489
vt 0.499707 0.253516
vt 0.199687 0.252777
vt 0.204876 0.244777
vt 0.176072 0.240038
vt 0.117779 0.244763
vt 0.835449 0.589540
vt 0.801860 0.578840
vt 0.350890 0.763552
vt 0.496144 0.245254
vt 0.130183 0.982424
vt 0.115799 0.985487
vt 0.795032 0.792717
vt 0.796462 0.322335
vt 0.773329 0.785656
vt 0.277136 0.021742
vt 0.332381 0.745184
vt 0.296002 0.022853
vt 0.319233 0.020425
vt 0.605748 0.982945
vt 0.550538 0.259941
vt 0.586880 0.981789
vt 0.563649 0.984227
vt 0.172188 0.985497
vt 0.192569 0.260232
vt 0.153540 0.982428
vt 0.733392 0.753483
vt 0.762342 0.558088
vt 0.772656 0.558090
vt 0.704405 0.558024
vt 0.662287 0.558050
vt 0.638344 0.510030
vt 0.796519 0.483000
vt 0.796462 0.439471
vt 0.827405 0.407996
vt 0.709414 0.801486
vt 0.667297 0.801512
vt 0.745122 0.753476
vt 0.619625 0.558053
vt 0.653364 0.753474
vt 0.608374 0.558050
vt 0.622446 0.077748
vt 0.618253 0.276324
vt 0.608374 0.277810
vt 0.758725 0.255208
vt 0.698232 0.066345
vt 0.770836 0.253387
vt 0.941191 0.305132
vt 0.941218 0.314069
vt 0.856167 0.294534
vt 0.637504 0.026722
vt 0.679149 0.020425
vt 0.710546 0.064473
vt 0.931444 0.183598
vt 0.897097 0.082956
vt 0.940818 0.183569
vt 0.814674 0.083168
vt 0.783679 0.184051
vt 0.770836 0.184091
vt 0.619225 0.314593
vt 0.651255 0.510013
vt 0.608374 0.314591
vt 0.728164 0.510021
vt 0.762353 0.314626
vt 0.772659 0.314628
vt 0.770862 0.192710
vt 0.722158 0.314591
vt 0.000000 0.000000
vt 0.050969 0.032570
vt 0.796583 0.407996
vt 0.349348 0.984511
vt 0.441456 0.030091
vt 0.827710 0.042687
vt 0.827741 0.066245
vt 0.770836 0.042761
vt 0.787472 0.026082
vt 0.811030 0.026051
vt 0.796462 0.514643
vt 0.824473 0.666725
vt 0.796504 0.730667
vt 0.803863 0.666725
vt 0.796509 0.646362
vt 0.130725 0.260222
vt 0.772659 0.314591
vt 0.741469 0.510014
vt 0.827289 0.514643
vt 0.827274 0.502269
vt 0.827474 0.419846
vt 0.641998 0.753491
vt 0.608571 0.079844
vt 0.940843 0.191762
vt 0.908947 0.083001
vt 0.802301 0.083165
vt 0.771211 0.306404
vt 0.771236 0.314591
vn 0.795067 0.511926 0.325270
vn 0.792198 0.511926 -0.332196
vn 0.325271 0.511926 -0.795067
vn -0.332195 0.511926 -0.792199
vn -0.795066 0.511926 -0.325271
vn -0.792198 0.511926 0.332195
vn -0.325271 0.511926 0.795067
vn 0.332196 0.511926 0.792198
vn -0.000000 -1.000000 0.000000
vn 0.924353 0.050631 0.378163
vn 0.921018 0.050631 -0.386215
vn 0.378164 0.050631 -0.924353
vn -0.386214 0.050631 -0.921019
vn -0.924353 0.050631 -0.378164
vn -0.921018 0.050631 0.386214
vn -0.378164 0.050631 0.924353
vn 0.386215 0.050631 0.921018
vn 0.636371 0.726121 0.260346
vn 0.634075 0.726120 -0.265890
vn 0.260347 0.726121 -0.636371
vn -0.265889 0.726121 -0.634076
vn -0.636371 0.726121 -0.260347
vn -0.634075 0.726121 0.265889
vn -0.260346 0.726121 0.636371
vn 0.265890 0.726121 0.634075
vn 0.761880 0.567790 0.311693
vn 0.759131 0.567791 -0.318330
vn 0.311694 0.567791 -0.761880
vn -0.318329 0.567791 -0.759132
vn -0.761880 0.567791 -0.311694
vn -0.759131 0.567791 0.318329
vn -0.311694 0.567790 0.761880
vn 0.318330 0.567791 0.759131
vn 0.912022 0.170291 0.373118
vn 0.908731 0.170292 -0.381062
vn 0.373118 0.170291 -0.912022
vn -0.381061 0.170291 -0.908732
vn -0.912022 0.170291 -0.373119
vn -0.908731 0.170291 0.381062
vn -0.373118 0.170291 0.912022
vn 0.381062 0.170292 0.908731
vn 0.925534 0.003729 0.378646
vn 0.922195 0.003729 -0.386708
vn 0.378647 0.003729 -0.925534
vn -0.386707 0.003729 -0.922195
vn -0.925534 0.003729 -0.378647
vn -0.922195 0.003729 0.386708
vn -0.378647 0.003729 0.925534
vn 0.386708 0.003729 0.922195
vn 0.000000 -0.161734 0.986834
vn -0.003507 -0.594710 -0.803933
vn -0.810212 -0.586127 0.003534
vn 0.003517 -0.591698 0.806152
vn 0.000000 -0.161998 0.986791
vn 0.985247 -0.171137 0.000000
vn 0.985202 -0.171400 0.000000
vn 0.000000 0.767729 0.640775
vn 0.797608 -0.603167 -0.003480
vn -0.988296 -0.152551 0.000000
vn -0.988336 -0.152286 0.000000
vn 0.000000 -0.161998 -0.986791
vn -0.000000 -0.161734 -0.986834
vn -0.640775 0.767729 0.000000
vn 0.000000 0.767729 -0.640775
vn 0.640775 0.767729 -0.000000
vn 0.675974 0.227993 -0.700770
vn 0.667035 0.226397 0.709794
vn 0.325271 0.511926 -0.795066
vn -0.332195 0.511926 -0.792198
vn -0.792198 0.511926 0.332196
vn 0.924354 0.050631 0.378163
vn 0.378163 0.050631 -0.924353
vn -0.386213 0.050631 -0.921019
vn -0.921019 0.050631 0.386214
vn -0.378163 0.050631 0.924353
vn 0.636372 0.726121 0.260346
vn 0.634075 0.726121 -0.265889
vn -0.265889 0.726120 -0.634076
vn 0.265889 0.726121 0.634075
vn 0.761880 0.567791 0.311693
vn -0.318329 0.567791 -0.759131
vn -0.311694 0.567791 0.761880
vn 0.912022 0.170292 0.373118
vn 0.908731 0.170291 -0.381063
vn 0.373119 0.170291 -0.912022
vn -0.912021 0.170291 -0.373119
vn -0.373119 0.170292 0.912021
vn 0.381063 0.170291 0.908731
vn -0.378646 0.003729 0.925534
vn 0.004314 -0.160817 0.986975
vn -0.003105 -0.591825 -0.806060
vn -0.006371 -0.597923 -0.801528
vn -0.000536 -0.592548 -0.805535
vn -0.812465 -0.583000 0.003479
vn -0.807106 -0.590362 0.007217
vn -0.811843 -0.583876 0.000522
vn 0.007249 -0.596595 0.802509
vn 0.003524 -0.591691 0.806157
vn 0.000515 -0.594525 0.804077
vn 0.008910 -0.164023 0.986416
vn 0.985386 -0.170297 -0.003601
vn 0.984852 -0.173208 -0.008117
vn 0.799679 -0.600420 -0.002922
vn 0.794987 -0.606591 -0.006552
vn 0.799226 -0.601030 -0.000534
vn -0.987955 -0.154487 0.008835
vn -0.988473 -0.151339 0.004233
vn -0.007841 -0.163694 -0.986480
vn -0.003802 -0.160822 -0.986976
vn 0.643106 0.224454 -0.732144
vn 0.734848 0.217479 0.642419
vn -0.000000 1.000000 0.000000
vn -0.660094 0.232410 0.714326
vn -0.643421 0.246779 -0.724645
vn -0.742069 0.243734 0.624442
vn -0.759827 0.231842 -0.607382
usemtl lamp_post_1
s off
f 19/1/1 5/2/1 18/3/1
f 18/4/2 3/5/2 17/6/2
f 17/7/3 1/8/3 24/9/3
f 23/10/4 24/9/4 13/11/4
f 23/12/5 13/13/5 22/14/5
f 22/14/6 11/15/6 21/16/6
f 21/17/7 9/18/7 20/19/7
f 20/19/8 7/20/8 19/1/8
f 12/21/9 14/22/9 10/23/9
f 43/24/10 19/1/10 42/25/10
f 42/26/11 18/27/11 41/28/11
f 41/29/12 17/7/12 48/30/12
f 47/31/13 48/30/13 23/10/13
f 47/32/14 23/12/14 46/33/14
f 46/33/15 22/14/15 45/34/15
f 45/35/16 21/17/16 44/36/16
f 44/36/17 20/19/17 43/24/17
f 51/37/18 27/38/18 50/39/18
f 50/39/19 26/40/19 49/41/19
f 49/41/20 25/42/20 56/43/20
f 55/44/21 56/45/21 31/46/21
f 55/47/22 31/48/22 54/49/22
f 54/50/23 30/51/23 53/52/23
f 53/53/24 29/54/24 52/55/24
f 52/56/25 28/57/25 51/58/25
f 27/59/26 35/60/26 26/61/26
f 26/40/27 34/62/27 25/42/27
f 25/63/28 33/64/28 32/65/28
f 31/46/29 32/65/29 39/66/29
f 31/67/30 39/68/30 30/51/30
f 30/51/31 38/69/31 29/70/31
f 29/71/32 37/72/32 28/57/32
f 28/57/33 36/73/33 27/59/33
f 35/60/34 43/24/34 34/74/34
f 34/75/35 42/26/35 33/76/35
f 33/64/36 41/29/36 40/77/36
f 39/66/37 40/77/37 47/31/37
f 39/68/38 47/32/38 38/69/38
f 38/69/39 46/33/39 37/78/39
f 37/72/40 45/35/40 36/73/40
f 36/73/41 44/36/41 35/60/41
f 6/79/42 51/58/42 4/80/42
f 4/81/43 50/82/43 2/83/43
f 2/84/44 49/85/44 16/86/44
f 14/87/45 16/86/45 55/44/45
f 14/88/46 55/89/46 12/90/46
f 12/90/47 54/50/47 10/91/47
f 10/92/48 53/93/48 8/94/48
f 8/94/49 52/56/49 6/79/49
f 66/95/50 76/96/50 63/97/50
f 2/98/51 14/99/51 58/100/51
f 14/101/52 10/102/52 59/103/52
f 10/104/53 6/105/53 59/106/53
f 75/107/54 65/108/54 64/109/54
f 72/110/55 74/111/55 64/112/55
f 73/113/56 71/114/56 61/115/56
f 75/116/57 64/117/57 81/118/57
f 6/119/58 2/120/58 57/121/58
f 77/122/59 67/123/59 63/124/59
f 68/125/60 78/126/60 62/127/60
f 79/128/61 69/129/61 62/130/61
f 70/131/62 80/132/62 61/133/62
f 62/127/63 78/126/63 81/118/63
f 79/134/64 62/127/64 81/118/64
f 73/113/65 61/115/65 81/135/65
f 75/116/9 74/111/9 64/112/9
f 66/136/66 67/122/66 77/136/66
f 68/136/67 69/128/67 79/136/67
f 5/2/1 3/137/1 18/3/1
f 3/5/2 1/138/2 17/6/2
f 1/8/68 15/139/68 24/9/68
f 24/9/69 15/139/69 13/11/69
f 13/13/5 11/15/5 22/14/5
f 11/15/70 9/140/70 21/16/70
f 9/18/7 7/20/7 20/19/7
f 7/20/8 5/2/8 19/1/8
f 10/23/9 6/141/9 8/142/9
f 10/23/9 14/22/9 6/141/9
f 14/22/9 16/143/9 6/141/9
f 16/143/9 2/144/9 6/141/9
f 2/144/9 4/145/9 6/141/9
f 19/1/71 18/3/71 42/25/71
f 18/27/11 17/146/11 41/28/11
f 17/7/72 24/9/72 48/30/72
f 48/30/73 24/9/73 23/10/73
f 23/12/14 22/14/14 46/33/14
f 22/14/74 21/16/74 45/34/74
f 21/17/75 20/19/75 44/36/75
f 20/19/17 19/1/17 43/24/17
f 27/38/76 26/40/76 50/39/76
f 26/40/77 25/42/77 49/41/77
f 25/42/20 32/147/20 56/43/20
f 56/45/78 32/65/78 31/46/78
f 31/48/22 30/148/22 54/49/22
f 30/51/23 29/70/23 53/52/23
f 29/54/24 28/149/24 52/55/24
f 28/57/79 27/59/79 51/58/79
f 35/60/80 34/74/80 26/61/80
f 34/62/27 33/150/27 25/42/27
f 33/64/28 40/77/28 32/65/28
f 32/65/81 40/77/81 39/66/81
f 39/68/30 38/69/30 30/51/30
f 38/69/31 37/78/31 29/70/31
f 37/72/82 36/73/82 28/57/82
f 36/73/33 35/60/33 27/59/33
f 43/24/83 42/25/83 34/74/83
f 42/26/84 41/28/84 33/76/84
f 41/29/85 48/30/85 40/77/85
f 40/77/37 48/30/37 47/31/37
f 47/32/86 46/33/86 38/69/86
f 46/33/39 45/34/39 37/78/39
f 45/35/87 44/36/87 36/73/87
f 44/36/88 43/24/88 35/60/88
f 51/58/42 50/151/42 4/80/42
f 50/82/43 49/152/43 2/83/43
f 49/85/44 56/45/44 16/86/44
f 16/86/45 56/45/45 55/44/45
f 55/89/46 54/50/46 12/90/46
f 54/50/47 53/52/47 10/91/47
f 53/93/89 52/56/89 8/94/89
f 52/56/49 51/58/49 6/79/49
f 59/106/90 66/95/90 63/97/90
f 57/153/91 2/98/91 70/131/91
f 2/98/92 58/100/92 69/129/92
f 70/131/93 2/98/93 69/129/93
f 58/154/94 14/101/94 68/155/94
f 14/101/95 59/103/95 67/156/95
f 68/155/96 14/101/96 67/156/96
f 6/105/97 60/157/97 65/108/97
f 59/106/98 6/105/98 66/95/98
f 6/105/99 65/108/99 66/95/99
f 65/108/100 60/157/100 64/109/100
f 60/158/101 72/110/101 64/112/101
f 71/114/102 57/121/102 61/115/102
f 76/159/57 75/116/57 81/118/57
f 63/124/57 76/159/57 81/118/57
f 60/158/103 6/119/103 72/110/103
f 6/119/104 57/121/104 71/114/104
f 72/110/105 6/119/105 71/114/105
f 67/123/106 59/160/106 63/124/106
f 58/161/107 68/125/107 62/127/107
f 69/129/108 58/100/108 62/130/108
f 57/153/109 70/131/109 61/133/109
f 78/126/63 77/122/63 81/118/63
f 77/122/63 63/124/63 81/118/63
f 80/162/64 79/134/64 81/118/64
f 61/163/64 80/162/64 81/118/64
f 74/111/65 73/113/65 81/135/65
f 64/112/65 74/111/65 81/135/65
f 63/124/9 77/122/9 76/159/9
f 78/126/9 62/127/9 79/134/9
f 73/113/9 80/162/9 61/163/9
f 78/126/9 79/134/9 80/162/9
f 77/122/9 78/126/9 80/162/9
f 75/116/9 73/113/9 74/111/9
f 75/116/9 76/159/9 73/113/9
f 76/159/9 77/122/9 80/162/9
f 73/113/9 76/159/9 80/162/9
f 76/95/110 66/136/110 77/136/110
f 78/125/111 68/136/111 79/136/111
f 66/108/112 67/123/112 59/95/112
f 70/136/113 71/113/113 73/136/113
f 75/136/114 74/110/114 72/136/114
f 57/153/112 70/129/112 71/121/112
f 69/129/112 58/161/112 68/156/112
f 72/114/112 65/108/112 60/110/112
f 72/114/112 66/108/112 65/108/112
f 71/121/112 66/108/112 72/114/112
f 71/121/112 70/129/112 66/108/112
f 70/129/112 69/129/112 66/108/112
f 69/129/112 68/156/112 67/123/112
f 66/108/112 69/129/112 67/123/112
f 80/131/115 70/136/115 73/136/115
f 65/107/116 75/136/116 72/136/116
