# Blender v2.78 (sub 0) OBJ File: ''
# www.blender.org
o Cube.001
v 16.631327 -1.723883 -24.042568
v 16.631327 -1.723885 15.858270
v -20.254995 -1.723883 -24.042568
v 16.631327 -1.265188 -24.042568
v -20.254997 -1.265188 -24.042568
v 16.631325 -1.265190 15.858271
v -20.254997 -1.723885 15.858270
v -20.254997 -1.265190 15.858270
v -10.278732 -9.373022 -2.312059
v 9.027534 -9.595270 -2.786102
v -10.245110 -9.915459 -2.028454
vt 0.0001 0.9244
vt 0.0001 0.0001
vt 0.9999 0.9244
vt 0.9999 0.0001
vt 0.0000 0.0000
vt 1.0000 0.0000
vt 0.0000 1.0000
vt 0.0175 0.0001
vt 0.0000 0.9999
vt 0.0000 0.0000
vt 1.0000 0.0000
vt 0.0000 1.0000
vt 0.0000 0.0000
vt 1.0000 0.0000
vt 0.0000 0.0000
vt 1.0000 0.0000
vt 0.0000 1.0000
vt 1.0000 1.0000
vt 0.0175 1.0000
vt 1.0000 1.0000
vt 1.0000 1.0000
vt 1.0000 1.0000
vn 0.0000 1.0000 0.0000
vn 0.0000 -1.0000 -0.0000
vn 1.0000 0.0000 0.0000
vn 0.0000 -0.0000 1.0000
vn -1.0000 0.0000 -0.0000
vn 0.0000 0.0000 -1.0000
s 1
f 4/1/1 5/2/1 6/3/1
f 5/2/1 8/4/1 6/3/1
f 1/5/2 2/6/2 3/7/2
f 1/5/3 4/8/3 2/9/3
f 2/10/4 6/11/4 7/12/4
f 7/13/5 8/14/5 3/7/5
f 4/15/6 1/16/6 5/17/6
f 2/6/2 7/18/2 3/7/2
f 4/8/3 6/19/3 2/9/3
f 6/11/4 8/20/4 7/12/4
f 8/14/5 5/21/5 3/7/5
f 1/16/6 3/22/6 5/17/6
