mtllib player_0_3.mtl
o Plane_Plane.001
v 0.500000 0.000000 -0.500000
v -0.500000 0.000000 -0.500000
v 0.500000 0.000000 0.000000
v 0.000000 0.000000 -0.500000
v -0.500000 0.000000 0.000000
v 0.500000 0.000000 -0.250000
v -0.250000 0.000000 -0.500000
v 0.250000 0.000000 -0.500000
v -0.500000 0.000000 -0.250000
v 0.500000 0.000000 -0.375000
v -0.375000 0.000000 -0.500000
v 0.125000 0.000000 -0.500000
v -0.500000 0.000000 -0.125000
v 0.000000 0.000000 0.375000
v 0.500000 0.000000 -0.125000
v -0.125000 0.000000 -0.500000
v 0.375000 0.000000 -0.500000
v -0.500000 0.000000 -0.375000
v 0.250000 0.000000 0.125000
v 0.500000 0.000000 -0.437500
v -0.437500 0.000000 -0.500000
v 0.500000 0.000000 0.062500
v 0.062500 0.000000 -0.500000
v -0.500000 0.000000 -0.062500
v 0.500000 0.000000 -0.187500
v -0.187500 0.000000 -0.500000
v 0.312500 0.000000 -0.500000
v -0.500000 0.000000 -0.312500
v 0.250000 0.000000 0.187500
v 0.500000 0.000000 -0.312500
v -0.312500 0.000000 -0.500000
v 0.187500 0.000000 -0.500000
v -0.500000 0.000000 -0.187500
v 0.500000 0.000000 -0.062500
v -0.062500 0.000000 -0.500000
v -0.500000 0.000000 0.062500
v 0.437500 0.000000 -0.500000
v -0.500000 0.000000 -0.437500
v -0.187500 0.000000 0.250000
v -0.125000 0.000000 0.312500
v -0.062500 0.000000 0.375000
v 0.062500 0.000000 0.375000
v 0.187500 0.000000 0.312500
v 0.500000 0.000000 -0.468750
v -0.468750 0.000000 -0.500000
v 0.500000 0.000000 0.031250
v 0.031250 0.000000 -0.500000
v -0.500000 0.000000 -0.031250
v 0.500000 0.000000 -0.218750
v -0.218750 0.000000 -0.500000
v 0.281250 0.000000 -0.500000
v -0.500000 0.000000 -0.281250
v 0.250000 0.000000 0.218750
v 0.218750 0.000000 0.250000
v 0.500000 0.000000 -0.343750
v -0.343750 0.000000 -0.500000
v 0.156250 0.000000 -0.500000
v -0.500000 0.000000 -0.156250
v 0.500000 0.000000 -0.093750
v -0.093750 0.000000 -0.500000
v -0.500000 0.000000 0.093750
v 0.406250 0.000000 -0.500000
v -0.500000 0.000000 -0.406250
v 0.250000 0.000000 0.093750
v -0.250000 0.000000 0.093750
v -0.375000 0.000000 0.093750
v -0.125000 0.000000 0.343750
v -0.031250 0.000000 0.375000
v 0.375000 0.000000 0.093750
v 0.125000 0.000000 0.343750
v 0.093750 0.000000 0.375000
v 0.500000 0.000000 -0.406250
v -0.406250 0.000000 -0.500000
v 0.500000 0.000000 0.093750
v 0.093750 0.000000 -0.500000
v -0.500000 0.000000 -0.093750
v 0.500000 0.000000 -0.156250
v -0.156250 0.000000 -0.500000
v 0.343750 0.000000 -0.500000
v -0.500000 0.000000 -0.343750
v 0.250000 0.000000 0.156250
v 0.500000 0.000000 -0.281250
v -0.281250 0.000000 -0.500000
v 0.218750 0.000000 -0.500000
v -0.500000 0.000000 -0.218750
v 0.500000 0.000000 -0.031250
v -0.031250 0.000000 -0.500000
v -0.500000 0.000000 0.031250
v 0.468750 0.000000 -0.500000
v -0.500000 0.000000 -0.468750
v -0.218750 0.000000 0.125000
v 0.031250 0.000000 0.375000
v 0.187500 0.000000 0.281250
v 0.156250 0.000000 0.312500
v 0.312500 0.000000 0.093750
v 0.437500 0.000000 0.093750
v -0.187500 0.000000 0.281250
v -0.156250 0.000000 0.312500
v -0.062500 0.000000 0.343750
v -0.437500 0.000000 0.093750
v -0.312500 0.000000 0.093750
v -0.187500 0.000000 0.218750
v -0.218750 0.000000 0.187500
v -0.218750 0.000000 0.156250
v -0.281250 0.000000 0.093750
v -0.406250 0.000000 0.093750
v -0.156250 0.000000 0.281250
v 0.218750 0.000000 0.218750
v 0.468750 0.000000 0.093750
v 0.343750 0.000000 0.093750
v 0.218750 0.000000 0.281250
v 0.093750 0.000000 0.343750
v 0.156250 0.000000 0.343750
v 0.281250 0.000000 0.093750
v 0.406250 0.000000 0.093750
v -0.093750 0.000000 0.343750
v -0.218750 0.000000 0.093750
v -0.468750 0.000000 0.093750
v -0.343750 0.000000 0.093750
v -0.218750 0.000000 0.218750
vt 0.187500 0.000000
vt 0.000000 0.156250
vt 0.156250 0.000000
vt 0.781250 0.593750
vt 0.750000 0.593750
vt 1.000000 0.375000
vt 0.718750 0.593750
vt 1.000000 0.343750
vt 0.843750 0.593750
vt 1.000000 0.468750
vt 0.875000 0.593750
vt 0.718750 0.625000
vt 0.718750 0.656250
vt 0.687500 0.718750
vt 0.718750 0.687500
vt 0.812500 0.593750
vt 1.000000 0.406250
vt 1.000000 0.437500
vt 1.000000 0.500000
vt 0.718750 0.718750
vt 0.906250 0.593750
vt 0.687500 0.750000
vt 0.687500 0.781250
vt 0.656250 0.781250
vt 0.656250 0.812500
vt 0.625000 0.812500
vt 0.625000 0.843750
vt 0.593750 0.843750
vt 0.562500 0.843750
vt 0.562500 0.875000
vt 0.531250 0.875000
vt 1.000000 0.531250
vt 0.937500 0.593750
vt 0.281250 0.718750
vt 0.500000 0.875000
vt 0.406250 0.843750
vt 0.968750 0.593750
vt 1.000000 0.562500
vt 0.468750 0.875000
vt 1.000000 0.593750
vt 0.437500 0.875000
vt 0.406250 0.875000
vt 0.375000 0.843750
vt 0.343750 0.812500
vt 0.343750 0.843750
vt 0.312500 0.781250
vt 0.312500 0.812500
vt 1.000000 0.281250
vt 1.000000 0.312500
vt 0.687500 0.000000
vt 0.281250 0.781250
vt 0.281250 0.750000
vt 0.250000 0.718750
vt 0.250000 0.687500
vt 1.000000 0.218750
vt 1.000000 0.250000
vt 0.750000 0.000000
vt 0.718750 0.000000
vt 0.500000 0.000000
vt 0.531250 0.000000
vt 0.250000 0.656250
vt 0.250000 0.593750
vt 0.593750 0.000000
vt 0.625000 0.000000
vt 1.000000 0.156250
vt 1.000000 0.187500
vt 0.812500 0.000000
vt 0.781250 0.000000
vt 0.468750 0.000000
vt 0.562500 0.000000
vt 0.250000 0.625000
vt 0.218750 0.593750
vt 0.000000 0.375000
vt 0.187500 0.593750
vt 0.000000 0.406250
vt 0.000000 0.343750
vt 1.000000 0.062500
vt 1.000000 0.093750
vt 0.906250 0.000000
vt 1.000000 0.125000
vt 0.875000 0.000000
vt 0.656250 0.000000
vt 0.843750 0.000000
vt 0.156250 0.593750
vt 0.000000 0.437500
vt 1.000000 0.000000
vt 1.000000 0.031250
vt 0.968750 0.000000
vt 0.125000 0.593750
vt 0.000000 0.468750
vt 0.093750 0.593750
vt 0.000000 0.500000
vt 0.937500 0.000000
vt 0.062500 0.593750
vt 0.031250 0.593750
vt 0.000000 0.562500
vt 0.000000 0.593750
vt 0.000000 0.531250
vt 0.000000 0.312500
vt 0.312500 0.000000
vt 0.375000 0.000000
vt 0.343750 0.000000
vt 0.000000 0.281250
vt 0.000000 0.250000
vt 0.281250 0.000000
vt 0.000000 0.218750
vt 0.250000 0.000000
vt 0.406250 0.000000
vt 0.437500 0.000000
vt 0.000000 0.187500
vt 0.000000 0.125000
vt 0.218750 0.000000
vt 0.000000 0.093750
vt 0.000000 0.062500
vt 0.093750 0.000000
vt 0.000000 0.031250
vt 0.062500 0.000000
vt 0.125000 0.000000
vt 0.000000 0.000000
vt 0.031250 0.000000
vn 0.0000 1.0000 0.0000
usemtl ~wall.mtl/wall_material
s off
f 27/1/1 55/2/1 79/3/1
f 105/4/1 65/5/1 13/6/1
f 65/5/1 117/7/1 58/8/1
f 119/9/1 48/10/1 66/11/1
f 91/12/1 104/13/1 102/14/1
f 104/13/1 103/15/1 102/14/1
f 101/16/1 105/4/1 76/17/1
f 48/10/1 119/9/1 24/18/1
f 66/11/1 48/10/1 5/19/1
f 103/15/1 120/20/1 102/14/1
f 119/9/1 101/16/1 24/18/1
f 66/11/1 5/19/1 106/21/1
f 117/7/1 91/12/1 102/14/1
f 39/22/1 97/23/1 107/24/1
f 102/14/1 39/22/1 107/24/1
f 107/24/1 98/25/1 40/26/1
f 40/26/1 67/27/1 116/28/1
f 99/29/1 41/30/1 68/31/1
f 40/26/1 116/28/1 99/29/1
f 102/14/1 107/24/1 40/26/1
f 106/21/1 5/19/1 88/32/1
f 106/21/1 88/32/1 100/33/1
f 117/7/1 102/14/1 108/34/1
f 102/14/1 40/26/1 99/29/1
f 99/29/1 68/31/1 14/35/1
f 102/14/1 99/29/1 112/36/1
f 118/37/1 100/33/1 36/38/1
f 36/38/1 100/33/1 88/32/1
f 102/14/1 112/36/1 108/34/1
f 99/29/1 14/35/1 92/39/1
f 61/40/1 118/37/1 36/38/1
f 99/29/1 92/39/1 112/36/1
f 92/39/1 42/41/1 112/36/1
f 24/18/1 101/16/1 76/17/1
f 42/41/1 71/42/1 112/36/1
f 112/36/1 70/43/1 94/44/1
f 70/43/1 113/45/1 94/44/1
f 112/36/1 94/44/1 93/46/1
f 13/6/1 76/17/1 105/4/1
f 13/6/1 65/5/1 58/8/1
f 94/44/1 43/47/1 93/46/1
f 85/48/1 33/49/1 117/7/1
f 33/49/1 58/8/1 117/7/1
f 85/48/1 117/7/1 26/50/1
f 112/36/1 93/46/1 108/34/1
f 93/46/1 111/51/1 54/52/1
f 108/34/1 53/53/1 29/54/1
f 93/46/1 54/52/1 108/34/1
f 52/55/1 9/56/1 7/57/1
f 9/56/1 85/48/1 50/58/1
f 117/7/1 4/59/1 87/60/1
f 108/34/1 29/54/1 81/61/1
f 117/7/1 108/34/1 64/62/1
f 117/7/1 60/63/1 16/64/1
f 80/65/1 28/66/1 31/67/1
f 28/66/1 52/55/1 83/68/1
f 4/59/1 117/7/1 47/69/1
f 60/63/1 117/7/1 35/70/1
f 117/7/1 87/60/1 35/70/1
f 108/34/1 81/61/1 19/71/1
f 64/62/1 114/72/1 15/73/1
f 114/72/1 95/74/1 59/75/1
f 64/62/1 15/73/1 77/76/1
f 108/34/1 19/71/1 64/62/1
f 117/7/1 64/62/1 47/69/1
f 38/77/1 63/78/1 73/79/1
f 63/78/1 18/80/1 11/81/1
f 78/82/1 117/7/1 16/64/1
f 18/80/1 80/65/1 56/83/1
f 95/74/1 110/84/1 34/85/1
f 114/72/1 59/75/1 15/73/1
f 2/86/1 90/87/1 45/88/1
f 90/87/1 38/77/1 45/88/1
f 117/7/1 78/82/1 26/50/1
f 110/84/1 69/89/1 86/90/1
f 69/89/1 115/91/1 3/92/1
f 110/84/1 86/90/1 34/85/1
f 11/81/1 73/79/1 63/78/1
f 73/79/1 21/93/1 38/77/1
f 21/93/1 45/88/1 38/77/1
f 95/74/1 34/85/1 59/75/1
f 96/94/1 109/95/1 22/96/1
f 109/95/1 74/97/1 22/96/1
f 96/94/1 22/96/1 46/98/1
f 69/89/1 3/92/1 86/90/1
f 115/91/1 96/94/1 46/98/1
f 83/68/1 31/67/1 28/66/1
f 31/67/1 56/83/1 80/65/1
f 56/83/1 11/81/1 18/80/1
f 115/91/1 46/98/1 3/92/1
f 26/50/1 50/58/1 85/48/1
f 50/58/1 7/57/1 9/56/1
f 7/57/1 83/68/1 52/55/1
f 77/76/1 25/99/1 64/62/1
f 64/62/1 25/99/1 32/100/1
f 12/101/1 64/62/1 57/102/1
f 49/103/1 6/104/1 84/105/1
f 6/104/1 82/106/1 8/107/1
f 49/103/1 32/100/1 25/99/1
f 64/62/1 12/101/1 75/108/1
f 75/108/1 23/109/1 64/62/1
f 23/109/1 47/69/1 64/62/1
f 57/102/1 64/62/1 32/100/1
f 32/100/1 49/103/1 84/105/1
f 84/105/1 6/104/1 8/107/1
f 30/110/1 55/2/1 27/1/1
f 55/2/1 10/111/1 79/3/1
f 8/107/1 82/106/1 51/112/1
f 82/106/1 30/110/1 51/112/1
f 72/113/1 20/114/1 62/115/1
f 20/114/1 44/116/1 37/117/1
f 10/111/1 72/113/1 17/118/1
f 51/112/1 30/110/1 27/1/1
f 79/3/1 10/111/1 17/118/1
f 44/116/1 1/119/1 89/120/1
f 37/117/1 62/115/1 20/114/1
f 62/115/1 17/118/1 72/113/1
f 44/116/1 89/120/1 37/117/1
