mtllib wall.mtl
o Cbox
v -0.500000 1.000000 -0.000000
v -0.500000 1.000000 -0.346319
v 0.503047 0.000000 0.000000
v 0.500000 1.000000 -0.347198
v 0.503047 1.000000 -0.000000
v 0.503047 -0.000000 -0.498622
v 0.503047 0.312500 -0.346319
v -0.496953 0.000000 0.000000
v -0.496953 -0.000000 -0.498622
v -0.496953 0.312500 -0.346319
vt 0.992915 0.995664
vt 0.003641 0.980039
vt 0.004109 0.995664
vt 0.000773 0.001992
vt 0.028718 0.999471
vt 0.028269 0.000480
vt 0.007497 0.002923
vt 0.030555 0.999266
vt 0.001310 0.997984
vt 0.995829 0.996095
vt 0.995304 0.001955
vt 0.974880 0.011720
vt 0.995829 0.003906
vt 0.975773 0.998048
vt 0.995829 0.998048
vt 0.000431 0.000097
vt 1.000172 0.281839
vt 0.000692 0.282156
vt -0.000038 1.000338
vt 0.999908 0.282293
vt 1.000462 1.000162
vt 0.994868 0.972656
vt 0.000642 0.999473
vt 0.975773 0.001953
vt 0.999892 -0.000405
vt 0.000187 0.282186
vn -0.0000 1.0000 -0.0000
vn 0.5730 0.5787 -0.5804
vn 0.7615 0.1457 -0.6315
vn 0.7080 0.7062 -0.0044
vn 1.0000 -0.0000 0.0000
vn 0.5796 0.3570 -0.7325
vn -1.0000 -0.0016 -0.0015
vn -0.7607 0.1438 -0.6330
vn -0.5796 0.3570 -0.7325
vn -1.0000 -0.0040 -0.0008
vn -0.7084 -0.0031 -0.7058
usemtl ~wall.mtl/wall_material
s 1
f 1/1/1 4/2/2 2/3/1
f 7/4/3 5/5/4 3/6/5
f 3/7/5 6/8/6 7/9/3
f 8/10/7 10/11/8 9/12/9
f 1/13/10 10/14/8 8/15/7
f 6/16/6 10/17/8 7/18/3
f 4/19/2 10/20/8 2/21/11
f 1/1/1 5/22/4 4/2/2
f 7/4/3 4/23/2 5/5/4
f 1/13/10 2/24/11 10/14/8
f 6/16/6 9/25/9 10/17/8
f 4/19/2 7/26/3 10/20/8
